<svg id="visual" viewBox="0 0 900 600" width="900" height="600" xmlns="http://www.w3.org/2000/svg" xmlns:xlink="http://www.w3.org/1999/xlink" version="1.1"><g transform="translate(422.51486980410067 268.0153977251884)"><path d="M143 -156C181.9 -137.8 207.7 -89.5 223.6 -34.2C239.6 21.1 245.8 83.3 215.5 113.6C185.1 144 118.2 142.5 59.1 165.2C0 187.9 -51.3 234.9 -89.7 228.7C-128.2 222.4 -153.7 163 -168.5 110.4C-183.2 57.8 -187.1 12 -173.9 -25C-160.6 -62 -130.1 -90.4 -98.3 -109.8C-66.4 -129.2 -33.2 -139.6 9.4 -150.8C52.1 -162.1 104.1 -174.1 143 -156" fill="#79ade0"></path></g></svg>