<?xml version="1.0" standalone="no"?>
<svg xmlns:xlink="http://www.w3.org/1999/xlink" id="wave" style="transform:rotate(180deg); transition: 0.3s" viewBox="0 0 1440 370" version="1.1" xmlns="http://www.w3.org/2000/svg"><defs><linearGradient id="sw-gradient-0" x1="0" x2="0" y1="1" y2="0"><stop stop-color="rgba(61, 70, 112, 1)" offset="0%"/><stop stop-color="rgba(121, 173, 224, 1)" offset="100%"/></linearGradient></defs><path style="transform:translate(0, 0px); opacity:1" fill="url(#sw-gradient-0)" d="M0,0L60,18.5C120,37,240,74,360,111C480,148,600,185,720,197.3C840,210,960,197,1080,172.7C1200,148,1320,111,1440,129.5C1560,148,1680,222,1800,246.7C1920,271,2040,247,2160,234.3C2280,222,2400,222,2520,215.8C2640,210,2760,197,2880,160.3C3000,123,3120,62,3240,67.8C3360,74,3480,148,3600,154.2C3720,160,3840,99,3960,74C4080,49,4200,62,4320,111C4440,160,4560,247,4680,277.5C4800,308,4920,284,5040,271.3C5160,259,5280,259,5400,228.2C5520,197,5640,136,5760,98.7C5880,62,6000,49,6120,61.7C6240,74,6360,111,6480,104.8C6600,99,6720,49,6840,30.8C6960,12,7080,25,7200,24.7C7320,25,7440,12,7560,6.2C7680,0,7800,0,7920,49.3C8040,99,8160,197,8280,240.5C8400,284,8520,271,8580,265.2L8640,259L8640,370L8580,370C8520,370,8400,370,8280,370C8160,370,8040,370,7920,370C7800,370,7680,370,7560,370C7440,370,7320,370,7200,370C7080,370,6960,370,6840,370C6720,370,6600,370,6480,370C6360,370,6240,370,6120,370C6000,370,5880,370,5760,370C5640,370,5520,370,5400,370C5280,370,5160,370,5040,370C4920,370,4800,370,4680,370C4560,370,4440,370,4320,370C4200,370,4080,370,3960,370C3840,370,3720,370,3600,370C3480,370,3360,370,3240,370C3120,370,3000,370,2880,370C2760,370,2640,370,2520,370C2400,370,2280,370,2160,370C2040,370,1920,370,1800,370C1680,370,1560,370,1440,370C1320,370,1200,370,1080,370C960,370,840,370,720,370C600,370,480,370,360,370C240,370,120,370,60,370L0,370Z"/></svg>